<svg width="16" height="15" viewBox="0 0 16 15" fill="none" xmlns="http://www.w3.org/2000/svg">
<path d="M16 1.60146C16 1.37268 15.8181 1.19363 15.5856 1.19363H10.9362V0.397878C10.9362 0.179045 10.7543 0 10.5319 0C10.3095 0 10.1276 0.179045 10.1276 0.397878V1.19363H5.8825V0.397878C5.8825 0.179045 5.70057 0 5.47821 0C5.25584 0 5.07391 0.179045 5.07391 0.397878V1.19363H0.414403C0.181933 1.19363 0 1.38263 0 1.60146V5.05305C0 5.08289 0.0101074 5.12268 0.0101074 5.15252V14.3037C0.0101074 14.6916 0.323436 15 0.717625 15H15.2723C15.6665 15 15.9798 14.6916 15.9798 14.3037V5.15252C15.9899 5.12268 15.9899 5.09284 15.9899 5.05305V1.60146H16ZM5.07391 2.01923V2.79509C5.07391 3.01393 5.25584 3.19297 5.47821 3.19297C5.70057 3.19297 5.8825 3.01393 5.8825 2.79509V2.01923H10.1175V2.79509C10.1175 3.01393 10.2994 3.19297 10.5218 3.19297C10.7442 3.19297 10.9261 3.01393 10.9261 2.79509V2.01923H15.1611V4.35676H0.838913V2.01923H5.07391ZM4.89198 12.7321H2.48642V10.3647H4.89198V12.7321V12.7321ZM4.89198 8.86273H2.48642V6.48541H4.89198V8.86273V8.86273ZM9.14719 12.7321H6.73152V10.3647H9.13708V12.7321H9.14719ZM9.14719 8.86273H6.73152V6.48541H9.13708V8.86273H9.14719ZM13.3923 12.7321H10.9867V10.3647H13.3923V12.7321ZM13.3923 8.86273H10.9867V6.48541H13.3923V8.86273Z" fill="#AFBE80"/>
</svg>
