<svg width="17" height="17" viewBox="0 0 17 17" fill="none" xmlns="http://www.w3.org/2000/svg">
<path d="M17 15.8435L12.013 10.8126C12.8643 9.68063 13.3702 8.2714 13.3702 6.74438C13.371 3.0254 10.372 0 6.68552 0C2.999 0 0 3.0254 0 6.74438C0 10.4634 2.999 13.4888 6.68552 13.4888C8.27542 13.4888 9.7356 12.9252 10.8844 11.9871L15.8536 17L17 15.8435ZM6.68552 11.853C3.89327 11.853 1.62152 9.56122 1.62152 6.74438C1.62152 3.92754 3.89327 1.63579 6.68552 1.63579C9.47778 1.63579 11.7495 3.92754 11.7495 6.74438C11.7495 9.56122 9.47778 11.853 6.68552 11.853Z" fill="#AFBE80"/>
</svg>
