<svg width="20" height="20" viewBox="0 0 20 20" fill="none" xmlns="http://www.w3.org/2000/svg">
<path d="M19.8042 11.9769C19.9327 11.3378 20 10.677 20 9.9994C20 9.323 19.9315 8.66102 19.8042 8.02187L17.8615 7.93296C17.6729 7.21211 17.3857 6.53091 17.0181 5.90257L18.33 4.46567C17.5924 3.35796 16.6408 2.40644 15.5343 1.66997L14.0974 2.98192C13.4691 2.61428 12.7879 2.32715 12.067 2.13852L11.9769 0.195831C11.3378 0.0684808 10.677 0 10.0006 0C9.323 0 8.66222 0.0684808 8.02307 0.195831L7.93416 2.13852C7.21331 2.32715 6.53211 2.61428 5.90377 2.98192L4.46687 1.67117C3.35916 2.40884 2.40764 3.36037 1.67117 4.46687L2.98312 5.90377C2.61549 6.53211 2.32835 7.21331 2.13972 7.93416L0.195831 8.02307C0.0684808 8.66222 0 9.323 0 10.0006C0 10.677 0.0684808 11.339 0.195831 11.9781L2.13852 12.067C2.32715 12.7879 2.61428 13.4691 2.98192 14.0974L1.66997 15.5343C2.40764 16.642 3.35916 17.5936 4.46567 18.33L5.90257 17.0181C6.53091 17.3857 7.21211 17.6729 7.93296 17.8615L8.02187 19.8042C8.66102 19.9327 9.3218 20 9.9994 20C10.6758 20 11.3378 19.9315 11.9769 19.8042L12.0658 17.8615C12.7867 17.6729 13.4679 17.3857 14.0962 17.0181L15.5331 18.33C16.6408 17.5924 17.5924 16.6408 18.3288 15.5343L17.0169 14.0974C17.3845 13.4691 17.6717 12.7879 17.8603 12.067L19.8042 11.9769ZM10.0006 13.9124C7.84045 13.9124 6.08878 12.1607 6.08878 10.0006C6.08878 7.84045 7.84045 6.08878 10.0006 6.08878C12.1607 6.08878 13.9124 7.84045 13.9124 10.0006C13.9124 12.1607 12.1607 13.9124 10.0006 13.9124Z" fill="#005478"/>
</svg>
