<svg width="31" height="22" viewBox="0 0 31 22" fill="none" xmlns="http://www.w3.org/2000/svg">
<path d="M21.1597 20.6372L19.9337 17.7122L17.9957 13.0882L17.3223 11.4828L17.3275 11.4802L12.7228 0.5H8.80317L0 21.5H4.1754L5.91676 17.3475L6.25089 16.5515H15.2764L15.6105 17.3475L15.874 17.9766V17.9753L15.9061 18.0501L17.393 21.4987H17.6642H21.526L21.1636 20.6332L21.1597 20.6372ZM7.91771 12.5727L10.763 5.7864L13.6083 12.5727H7.91771Z" fill="#005478"/>
<path d="M24.2337 5.42773H21.2214L18.4082 12.1072L20.7587 17.7128H26.1948L26.4519 18.3218L27.7897 21.5006H30.9999L24.2337 5.42773ZM20.5402 14.6676L22.7275 9.47334L24.9148 14.6676H20.5402Z" fill="#005478"/>
</svg>
