<svg width="21" height="26" viewBox="0 0 21 26" fill="none" xmlns="http://www.w3.org/2000/svg">
<g clip-path="url(#clip0)">
<path d="M11.6277 9.49609H9.56738V15.413H9.57019L13.7778 19.5957L15.2346 18.1475L11.6277 14.5619V9.49609Z" fill="#005478"/>
<path d="M11.9477 4.72596V3.37962H15.97V0.5H5.0286V3.37962H9.05233V4.72596C3.94513 5.42913 0 9.796 0 15.0628C0 20.8178 4.71002 25.5 10.5007 25.5C16.2914 25.5 21.0014 20.8178 21.0014 15.0628C21 9.796 17.0549 5.42913 11.9477 4.72596ZM10.5007 22.7097C6.25804 22.7097 2.80692 19.2789 2.80692 15.0628C2.80692 10.8452 6.25804 7.41445 10.5007 7.41445C14.7434 7.41445 18.1945 10.8452 18.1945 15.0628C18.1931 19.2789 14.742 22.7097 10.5007 22.7097Z" fill="#005478"/>
</g>
<defs>
<clipPath id="clip0">
<rect width="21" height="25" fill="white" transform="translate(0 0.5)"/>
</clipPath>
</defs>
</svg>
